# xmcd
#
# Track frame offsets:
#       150
#       9568
#       20993
#       38548
#       49067
#       61829
#       74591
#       95796
#       108029
#       124009
#       128203
#       138095
#       153309
#
# Disc length: 2156 seconds
#
# Revision: 1
# Processed by: cddbd v1.5.2PL0 Copyright (c) Steve Scherf et al.
# Submitted via: MusiCat 1.1
#
DISCID=ac086a0d
DTITLE=Moody Blues - On The Threshold Of A Dream
DYEAR=1969
DGENRE=
TTITLE0=In The Beginning
TTITLE1=Lovely To See You
TTITLE2=Dear Diary
TTITLE3=Send Me No Wine
TTITLE4=To Share Our Love
TTITLE5=So Deep Within You
TTITLE6=Never Comes The Day
TTITLE7=Lazy day
TTITLE8=Are You Sitting Comfortably
TTITLE9=The Dream
TTITLE10=have You Heard pt 1
TTITLE11=The Voyage
TTITLE12=Have You Heard pt 2
EXTD=Deram\n\n
EXTT0=
EXTT1=
EXTT2=
EXTT3=
EXTT4=
EXTT5=
EXTT6=
EXTT7=
EXTT8=
EXTT9=
EXTT10=
EXTT11=
EXTT12=
PLAYORDER=
